<?xml version="1.0" encoding="UTF-8"?>
<svg xmlns="http://www.w3.org/2000/svg" viewBox="0 0 132 39.29">
  <defs>
    <linearGradient id="a" x2="40.5" y1="34.24" y2="34.24" gradientUnits="userSpaceOnUse">
      <stop offset="0" stop-color="#0d52ff"></stop>
      <stop offset="1" stop-color="#fff"></stop>
    </linearGradient>
  </defs>
  <g data-name="Layer 2">
    <g data-name="Layer 1">
      <path fill="#201b55" d="M36.31 14.37a5 5 0 0 1 4.19 2V.38a.39.39 0 0 0-.61-.31L20.06 14.55h.53a2.79 2.79 0 0 1 3.11 2.75 2.44 2.44 0 0 1-1.37 2.31.17.17 0 0 0 0 .31 2.66 2.66 0 0 1 1.57 2.49 2.84 2.84 0 0 1-3.14 2.93h-5.65a.21.21 0 0 1-.21-.21v-6.81L.14 29.09a.34.34 0 0 0 .19.61h39.84a.34.34 0 0 0 .33-.34v-5.45a5.94 5.94 0 0 1-4.19 1.63 5.59 5.59 0 1 1 0-11.17zm-7.89 10.78a.2.2 0 0 1-.2.19h-1.91a.2.2 0 0 1-.2-.19v-10.4a.2.2 0 0 1 .2-.2h1.91a.2.2 0 0 1 .2.2zM17.2 18.63v-1.95a.11.11 0 0 1 .11-.11h2.78a1.14 1.14 0 0 1 1.26 1.14 1.12 1.12 0 0 1-1.26 1.13h-2.68a.22.22 0 0 1-.21-.21zm0 4.48v-2a.22.22 0 0 1 .21-.21h2.77a1.23 1.23 0 0 1 1.38 1.23c0 .78-.52 1.23-1.38 1.23h-2.77a.21.21 0 0 1-.21-.25zm21.85-5.39l1.45-.79v2.44H36a.22.22 0 0 0-.22.23v1.55a.22.22 0 0 0 .22.23h2.46a.17.17 0 0 1 .17.17v1a.2.2 0 0 1-.06.14 3.7 3.7 0 0 1-2.23.77A3.37 3.37 0 0 1 32.91 20a3.37 3.37 0 0 1 3.4-3.54 3.11 3.11 0 0 1 2.45 1.24.23.23 0 0 0 .29.02zM42.19 20a5.34 5.34 0 0 1 5.47-5.59 4.64 4.64 0 0 1 4.08 2.25.19.19 0 0 1-.07.26l-1.23.67a.19.19 0 0 1-.24-.07 3.05 3.05 0 0 0-2.54-1.42 3.64 3.64 0 0 0-3.6 3.9 3.65 3.65 0 0 0 3.6 3.89 3.1 3.1 0 0 0 2.55-1.43.17.17 0 0 1 .22-.06l1.24.64a.18.18 0 0 1 .08.26 4.7 4.7 0 0 1-4.09 2.28A5.35 5.35 0 0 1 42.19 20zm10.61 0a5.33 5.33 0 0 1 3.86-5.4 5.58 5.58 0 0 1 6.68 6.73 5.17 5.17 0 0 1-5.2 4.25A5.27 5.27 0 0 1 52.8 20zm8.8 0c0-2.24-1.36-3.9-3.46-3.9s-3.46 1.66-3.46 3.9 1.35 3.89 3.46 3.89S61.6 22.16 61.6 20zm13.09 5.26V17l-3.28 8.28a.11.11 0 0 1-.09 0h-.68a.11.11 0 0 1-.09 0L67.25 17v8.21a.12.12 0 0 1-.13.12h-1.64a.12.12 0 0 1-.13-.12V14.67a.13.13 0 0 1 .13-.13h2.38a.25.25 0 0 1 .23.16L71 22.11l2.87-7.4a.26.26 0 0 1 .24-.17h2.37a.13.13 0 0 1 .13.13v10.54a.12.12 0 0 1-.13.12h-1.66a.12.12 0 0 1-.13-.12zm18.68-.07V14.74a.2.2 0 0 1 .2-.2h7a.2.2 0 0 1 .19.2V16a.2.2 0 0 1-.19.2h-5.1a.2.2 0 0 0-.2.19v2.4a.2.2 0 0 0 .2.19h5a.2.2 0 0 1 .2.2v1.27a.2.2 0 0 1-.2.2h-5a.19.19 0 0 0-.2.19v2.62a.2.2 0 0 0 .2.2h5.12a.19.19 0 0 1 .19.19v1.28a.19.19 0 0 1-.19.19h-7a.19.19 0 0 1-.22-.18zm16.23.1l-2.27-3.84a.21.21 0 0 0-.17-.1h-1.59a.19.19 0 0 0-.19.2v3.64a.19.19 0 0 1-.2.19h-1.51a.19.19 0 0 1-.19-.19V14.74a.2.2 0 0 1 .19-.2h4.56a3.29 3.29 0 0 1 3.55 3.38 3 3 0 0 1-2.31 3.08.19.19 0 0 0-.12.29l2.33 3.71a.19.19 0 0 1-.17.29h-1.74a.19.19 0 0 1-.17-.05zm.23-7.33a1.68 1.68 0 0 0-1.84-1.7h-2.42a.19.19 0 0 0-.19.19v3.05a.19.19 0 0 0 .19.19H108a1.7 1.7 0 0 0 1.83-1.78zm14.76 7.23V14.73a.2.2 0 0 1 .19-.19h7a.2.2 0 0 1 .19.19V16a.2.2 0 0 1-.19.19h-5.13a.18.18 0 0 0-.19.19v2.4a.18.18 0 0 0 .19.19h5a.2.2 0 0 1 .19.19v1.29a.2.2 0 0 1-.19.19h-5a.18.18 0 0 0-.19.19v2.63a.19.19 0 0 0 .19.19h5.13a.19.19 0 0 1 .19.19v1.28a.19.19 0 0 1-.19.19h-7a.19.19 0 0 1-.19-.17zm-11.42-5.29a5.34 5.34 0 0 1 5.47-5.58 4.62 4.62 0 0 1 4.08 2.25.18.18 0 0 1-.07.25l-1.23.67a.18.18 0 0 1-.24-.06 3.06 3.06 0 0 0-2.54-1.43 3.63 3.63 0 0 0-3.59 3.9 3.65 3.65 0 0 0 3.59 3.9 3.12 3.12 0 0 0 2.55-1.43.15.15 0 0 1 .22-.06l1.24.64a.18.18 0 0 1 .08.26 4.71 4.71 0 0 1-4.09 2.27 5.35 5.35 0 0 1-5.47-5.58zM88.7 25.21V17l-3.29 8.28a.08.08 0 0 1-.08 0h-.69a.09.09 0 0 1-.08 0L81.26 17v8.21a.12.12 0 0 1-.13.12h-1.64a.12.12 0 0 1-.13-.12V14.67a.13.13 0 0 1 .13-.13h2.37a.27.27 0 0 1 .24.16l2.9 7.41 2.87-7.4a.26.26 0 0 1 .24-.17h2.37a.13.13 0 0 1 .13.13v10.54a.12.12 0 0 1-.13.12h-1.65a.12.12 0 0 1-.13-.12z"></path>
      <path fill="url(#a)" d="M40.17 29.7h-28L.14 38.5a.34.34 0 0 0 .19.61h39.84a.33.33 0 0 0 .33-.33v-9.42a.34.34 0 0 1-.33.34z"></path>
      <path fill="#0d52ff" d="M65.89 35.23v-.11c0-2.38 1.43-4.08 3.38-4.08 2.15 0 3.29 1.79 3.29 4.17v.43a.15.15 0 0 1-.16.15h-4.6a.2.2 0 0 0-.19.23 2 2 0 0 0 2 1.82 2.47 2.47 0 0 0 1.71-.72.15.15 0 0 1 .22 0l.69.81a.15.15 0 0 1 0 .21 3.58 3.58 0 0 1-2.68 1.14c-2.08.01-3.66-1.56-3.66-4.05zm4.8-.6a.2.2 0 0 0 .19-.22c-.12-1.16-.68-1.95-1.61-1.95s-1.51.73-1.68 1.94a.2.2 0 0 0 .19.23zM73.92 38l.61-.95a.15.15 0 0 1 .23 0 3.47 3.47 0 0 0 2.06.82c.69 0 1.09-.37 1.09-.87 0-.55-.61-.8-1.57-1.21-1.16-.51-2.15-1-2.15-2.34a2.36 2.36 0 0 1 2.62-2.32 4.51 4.51 0 0 1 2.45.77.15.15 0 0 1 0 .21l-.56 1a.15.15 0 0 1-.22 0 3.39 3.39 0 0 0-1.75-.61c-.62 0-1 .34-1 .78 0 .52.63.79 1.56 1.21 1.22.55 2.15 1.12 2.15 2.36a2.41 2.41 0 0 1-2.71 2.39 4.62 4.62 0 0 1-2.82-1 .15.15 0 0 1 .01-.24zm6.77 0l.61-.95a.16.16 0 0 1 .23 0 3.49 3.49 0 0 0 2.06.82c.69 0 1.1-.37 1.1-.87 0-.55-.62-.8-1.57-1.21C82 35.25 81 34.72 81 33.42a2.37 2.37 0 0 1 2.62-2.32 4.46 4.46 0 0 1 2.45.77.16.16 0 0 1 0 .21l-.56 1a.15.15 0 0 1-.22 0 3.42 3.42 0 0 0-1.75-.61c-.63 0-1 .34-1 .78 0 .52.63.79 1.55 1.21 1.23.55 2.16 1.12 2.16 2.36a2.42 2.42 0 0 1-2.71 2.39 4.58 4.58 0 0 1-2.82-1 .15.15 0 0 1-.03-.21zm7.09-2.81v-.11c0-2.38 1.44-4.08 3.38-4.08 2.15 0 3.29 1.79 3.29 4.17v.43a.15.15 0 0 1-.15.15h-4.6a.2.2 0 0 0-.2.23 2 2 0 0 0 2 1.82 2.45 2.45 0 0 0 1.71-.72.15.15 0 0 1 .22 0l.69.81a.15.15 0 0 1 0 .21 3.58 3.58 0 0 1-2.68 1.14c-2.07.05-3.66-1.52-3.66-4.01zm4.8-.6a.2.2 0 0 0 .19-.22c-.12-1.16-.68-1.95-1.61-1.95s-1.51.73-1.68 1.94a.21.21 0 0 0 .19.23zm4-3.44h1.31a.2.2 0 0 1 .19.19v1a2.51 2.51 0 0 1 2.17-1.3c1.52 0 2.44 1.06 2.44 2.76v5.12a.19.19 0 0 1-.2.19h-1.32a.19.19 0 0 1-.19-.19V34.3c0-1.12-.51-1.74-1.4-1.74a1.54 1.54 0 0 0-1.5 1.75v4.61a.19.19 0 0 1-.19.19h-1.32a.19.19 0 0 1-.19-.19v-7.54a.2.2 0 0 1 .19-.19zm8.65 6v-4.32a.2.2 0 0 0-.2-.19h-.46a.19.19 0 0 1-.19-.2v-1.06a.19.19 0 0 1 .19-.19h.43a.2.2 0 0 0 .2-.2v-1.75a.2.2 0 0 1 .19-.19h1.32a.19.19 0 0 1 .19.19V31a.2.2 0 0 0 .2.2h1.37a.2.2 0 0 1 .2.19v1.06a.2.2 0 0 1-.2.2h-1.37a.2.2 0 0 0-.2.19v4c0 .62.3.87.84.87a2 2 0 0 0 .7-.12.16.16 0 0 1 .21.14v1a.15.15 0 0 1-.08.14 2.83 2.83 0 0 1-1.32.3 1.81 1.81 0 0 1-2.03-1.99zm5.62-8.8h1.41a.19.19 0 0 1 .19.19v1.27a.2.2 0 0 1-.19.2h-1.41a.19.19 0 0 1-.19-.2v-1.24a.18.18 0 0 1 .18-.19zm0 2.81h1.31a.2.2 0 0 1 .2.19v7.54a.19.19 0 0 1-.2.19h-1.31a.19.19 0 0 1-.2-.19v-7.51a.2.2 0 0 1 .24-.19zm3.44 5.65v-.09c0-1.69 1.16-2.53 2.84-2.53a5.13 5.13 0 0 1 1.81.33v-.34a1.51 1.51 0 0 0-1.71-1.62 4.14 4.14 0 0 0-1.71.4.2.2 0 0 1-.26-.11l-.36-1a.2.2 0 0 1 .1-.24 5.52 5.52 0 0 1 2.46-.55 2.77 2.77 0 0 1 3.12 3.09v4.73a.19.19 0 0 1-.19.19h-1.28a.19.19 0 0 1-.19-.19v-.78a2.55 2.55 0 0 1-2.2 1.12 2.32 2.32 0 0 1-2.39-2.38zm4.66-.39v-.7a.15.15 0 0 0-.1-.14 3.94 3.94 0 0 0-1.36-.24c-1 0-1.54.5-1.54 1.34a1.19 1.19 0 0 0 1.32 1.32 1.59 1.59 0 0 0 1.73-1.55zm4.11-8.13h1.32a.18.18 0 0 1 .19.19v10.44a.18.18 0 0 1-.19.19h-1.28a.19.19 0 0 1-.19-.19V28.51a.19.19 0 0 1 .19-.19zm3.38 9.71l.61-.95a.14.14 0 0 1 .22 0 3.52 3.52 0 0 0 2.07.82c.69 0 1.09-.37 1.09-.87 0-.55-.61-.8-1.57-1.21-1.17-.51-2.15-1-2.15-2.34a2.36 2.36 0 0 1 2.61-2.32 4.52 4.52 0 0 1 2.46.77.17.17 0 0 1 0 .21l-.56 1a.15.15 0 0 1-.22 0 3.39 3.39 0 0 0-1.75-.61c-.62 0-1 .34-1 .78 0 .52.63.79 1.56 1.21 1.22.55 2.15 1.12 2.15 2.36a2.41 2.41 0 0 1-2.71 2.39 4.62 4.62 0 0 1-2.82-1 .15.15 0 0 1 .01-.24z"></path>
    </g>
  </g>
</svg>
