
      <svg data-logo="logo" xmlns="http://www.w3.org/2000/svg" viewBox="0 0 200 42">
        <g id="logogram" transform="translate(0, 1) rotate(0) "><path d="M21.3474 0.349945L46.7544 25.7266V39.3499H34.8978V30.624L16.4444 12.1924H12.611V39.3499H0.754395V0.349945H21.3474ZM34.8978 13.8842V0.349945H46.7544V13.8842H34.8978Z" fill="#212326"/></g>
        <g id="logotype" transform="translate(53, 7.5)"><path fill="#111111" d="M19.43 27.34L19.43 27.34Q16.05 27.34 13.37 25.80Q10.70 24.27 9.15 21.34Q7.61 18.42 7.61 14.29L7.61 14.29Q7.61 10.13 9.16 7.20Q10.72 4.27 13.40 2.73Q16.08 1.19 19.43 1.19L19.43 1.19Q21.60 1.19 23.47 1.80Q25.35 2.41 26.80 3.57Q28.25 4.73 29.17 6.42Q30.10 8.10 30.39 10.23L30.39 10.23L25.11 10.23Q24.94 9.19 24.45 8.38Q23.96 7.57 23.24 7.00Q22.51 6.42 21.57 6.12Q20.63 5.83 19.54 5.83L19.54 5.83Q17.55 5.83 16.05 6.82Q14.54 7.81 13.72 9.70Q12.90 11.58 12.90 14.29L12.90 14.29Q12.90 17.04 13.74 18.92Q14.58 20.80 16.07 21.75Q17.55 22.71 19.52 22.71L19.52 22.71Q20.61 22.71 21.54 22.41Q22.47 22.11 23.22 21.54Q23.96 20.97 24.45 20.15Q24.94 19.33 25.12 18.30L25.12 18.30L30.40 18.30Q30.20 20.06 29.35 21.69Q28.51 23.31 27.11 24.59Q25.70 25.87 23.77 26.61Q21.84 27.34 19.43 27.34ZM31.80 1.54L36.93 1.54L36.93 27L31.80 27L31.80 1.54ZM44.14 27L39.01 27L39.01 7.89L44.14 7.89L44.14 27ZM41.58 5.40L41.58 5.40Q40.41 5.40 39.59 4.63Q38.77 3.86 38.77 2.77L38.77 2.77Q38.77 1.67 39.59 0.90Q40.41 0.13 41.58 0.13L41.58 0.13Q42.74 0.13 43.57 0.90Q44.40 1.66 44.40 2.77L44.40 2.77Q44.40 3.86 43.57 4.63Q42.74 5.40 41.58 5.40ZM54.77 27.38L54.77 27.38Q51.88 27.38 49.79 26.14Q47.69 24.90 46.56 22.68Q45.42 20.47 45.42 17.53L45.42 17.53Q45.42 14.56 46.56 12.35Q47.69 10.13 49.79 8.89Q51.88 7.65 54.77 7.65L54.77 7.65Q56.46 7.65 57.90 8.10Q59.33 8.54 60.44 9.36Q61.55 10.18 62.27 11.36Q62.99 12.54 63.26 14.01L63.26 14.01L58.49 14.90Q58.34 14.15 58.02 13.56Q57.69 12.97 57.23 12.55Q56.77 12.13 56.16 11.91Q55.55 11.69 54.82 11.69L54.82 11.69Q53.45 11.69 52.52 12.42Q51.59 13.16 51.12 14.47Q50.65 15.79 50.65 17.52L50.65 17.52Q50.65 19.22 51.12 20.53Q51.59 21.84 52.52 22.59Q53.45 23.34 54.82 23.34L54.82 23.34Q55.55 23.34 56.17 23.11Q56.78 22.88 57.26 22.45Q57.74 22.01 58.07 21.39Q58.39 20.78 58.53 20.01L58.53 20.01L63.30 20.88Q63.02 22.40 62.30 23.59Q61.59 24.78 60.48 25.63Q59.37 26.49 57.92 26.93Q56.48 27.38 54.77 27.38ZM72.68 17.48L69.19 21.41L69.19 15.24L69.96 15.24L76.21 7.89L82.14 7.89L73.89 17.48L72.68 17.48ZM69.67 27L64.54 27L64.54 1.54L69.67 1.54L69.67 27ZM82.50 27L76.47 27L70.73 18.63L74.16 14.99L82.50 27ZM93.81 27.34L93.81 27.34Q90.43 27.34 87.76 25.80Q85.08 24.27 83.53 21.34Q81.99 18.42 81.99 14.29L81.99 14.29Q81.99 10.13 83.54 7.20Q85.10 4.27 87.78 2.73Q90.46 1.19 93.81 1.19L93.81 1.19Q95.98 1.19 97.86 1.80Q99.73 2.41 101.18 3.57Q102.63 4.73 103.56 6.42Q104.48 8.10 104.77 10.23L104.77 10.23L99.49 10.23Q99.32 9.19 98.83 8.38Q98.34 7.57 97.62 7.00Q96.89 6.42 95.95 6.12Q95.01 5.83 93.92 5.83L93.92 5.83Q91.93 5.83 90.43 6.82Q88.93 7.81 88.11 9.70Q87.29 11.58 87.29 14.29L87.29 14.29Q87.29 17.04 88.12 18.92Q88.96 20.80 90.45 21.75Q91.93 22.71 93.90 22.71L93.90 22.71Q94.99 22.71 95.93 22.41Q96.86 22.11 97.60 21.54Q98.34 20.97 98.83 20.15Q99.32 19.33 99.51 18.30L99.51 18.30L104.79 18.30Q104.58 20.06 103.74 21.69Q102.89 23.31 101.49 24.59Q100.09 25.87 98.16 26.61Q96.22 27.34 93.81 27.34ZM111.52 27.38L111.52 27.38Q109.71 27.38 108.26 26.74Q106.82 26.09 105.99 24.82Q105.16 23.55 105.16 21.65L105.16 21.65Q105.16 20.06 105.75 18.98Q106.34 17.91 107.36 17.26Q108.37 16.61 109.66 16.27Q110.95 15.93 112.37 15.79L112.37 15.79Q114.03 15.62 115.05 15.47Q116.06 15.33 116.53 15.01Q117.00 14.70 117.00 14.08L117.00 14.08L117.00 13.99Q117.00 13.17 116.66 12.61Q116.32 12.05 115.65 11.75Q114.99 11.45 114.01 11.45L114.01 11.45Q113.02 11.45 112.29 11.75Q111.55 12.05 111.09 12.54Q110.63 13.04 110.41 13.65L110.41 13.65L105.71 12.87Q106.20 11.21 107.35 10.05Q108.49 8.88 110.19 8.27Q111.89 7.65 114.01 7.65L114.01 7.65Q115.57 7.65 117.02 8.02Q118.47 8.39 119.63 9.16Q120.78 9.93 121.46 11.16Q122.13 12.39 122.13 14.13L122.13 14.13L122.13 27L117.28 27L117.28 24.35L117.11 24.35Q116.64 25.24 115.88 25.91Q115.11 26.59 114.02 26.98Q112.94 27.38 111.52 27.38ZM112.97 23.77L112.97 23.77Q114.18 23.77 115.10 23.29Q116.01 22.81 116.52 21.99Q117.04 21.17 117.04 20.16L117.04 20.16L117.04 18.10Q116.82 18.27 116.35 18.40Q115.89 18.54 115.33 18.64Q114.76 18.75 114.22 18.83Q113.67 18.92 113.24 18.97L113.24 18.97Q112.30 19.10 111.59 19.41Q110.87 19.72 110.47 20.22Q110.08 20.73 110.08 21.51L110.08 21.51Q110.08 22.25 110.46 22.75Q110.83 23.26 111.47 23.51Q112.12 23.77 112.97 23.77ZM129.36 27L124.23 27L124.23 7.89L129.19 7.89L129.19 11.23L129.39 11.23Q129.92 9.45 131.16 8.54Q132.40 7.64 134.01 7.64L134.01 7.64Q134.40 7.64 134.85 7.68Q135.30 7.72 135.66 7.81L135.66 7.81L135.66 12.39Q135.32 12.27 134.67 12.20Q134.02 12.13 133.44 12.13L133.44 12.13Q132.28 12.13 131.34 12.64Q130.40 13.14 129.88 14.04Q129.36 14.93 129.36 16.13L129.36 16.13L129.36 27ZM134.36 7.89L145.69 7.89L145.69 11.81L134.36 11.81L134.36 7.89ZM136.99 21.86L136.99 3.35L142.12 3.35L142.12 21.41Q142.12 22.32 142.52 22.75Q142.92 23.19 143.86 23.19L143.86 23.19Q144.15 23.19 144.68 23.11Q145.21 23.04 145.49 22.97L145.49 22.97L146.22 26.81Q145.37 27.07 144.52 27.17Q143.68 27.27 142.91 27.27L142.91 27.27Q140.04 27.27 138.52 25.87Q136.99 24.47 136.99 21.86L136.99 21.86Z"/></g>
        
      </svg>
    